<svg xmlns="http://www.w3.org/2000/svg" viewBox="0 0 67.74 67.73"><title>Asset 2</title><g id="Layer_2" data-name="Layer 2"><g id="Layer_1-2" data-name="Layer 1"><path d="M48.28,27.19C48,38.75,38.86,48.41,27.05,48.41A21.43,21.43,0,0,1,5.83,27.19,21.41,21.41,0,0,1,27.05,6C38.87,6,48,15.63,48.28,27.19c.11,3.85,6.11,3.87,6,0C54,15.78,47.2,5.62,36.37,1.62A27.39,27.39,0,0,0,6.1,9.85C-9.71,29,7.47,58.31,31.91,54c13-2.32,22-13.79,22.36-26.77C54.38,23.33,48.38,23.33,48.28,27.19Z"/><path d="M42.13,46.36,62.62,66.85c2.73,2.73,7-1.51,4.24-4.24L46.37,42.12c-2.73-2.73-7,1.51-4.24,4.24Z"/></g></g></svg>